<svg xmlns="http://www.w3.org/2000/svg" fill="none" viewBox="-0.5 -0.5 24 24" id="Docker--Streamline-Svg-Logos.svg" height="24" width="24"><desc>Docker Streamline Icon: https://streamlinehq.com</desc><path fill="#2396ED" d="m6.423923958333333 9.768459375 0.17120625 0.12396041666666667c0.29775416666666665 0.24015833333333333 0.4689604166666667 0.51131875 0.5061677083333334 0.8212197916666667 0.3200833333333334 -0.061980208333333335 0.7294833333333334 -0.015501041666666666 0.908140625 0.108459375l0.16377916666666667 0.10072083333333334 -0.029780208333333332 0.061980208333333335c-0.052109375 0.11619791666666666 -0.06701145833333334 0.1472 -0.07443854166666666 0.16267708333333336 -0.290303125 0.5810614583333333 -0.8634822916666667 0.5888 -1.13145625 0.5810614583333333 -0.6773739583333334 1.6966812500000001 -2.1214864583333335 2.6340989583333334 -4.071742708333334 2.6340989583333334 -0.900694375 0 -1.5855217708333333 -0.2866375 -2.047033541666667 -0.8521979166666667C0.20837664583333335 12.766677083333333 0.20837664583333335 11.798257291666667 0.2604821875 11.488380208333334l0.014887708333333334 -0.061980208333333335H5.657209375c0.2828760416666667 0 0.49874062500000005 -0.07748125 0.6029593750000001 -0.13946145833333332 -0.11166979166666667 -0.17043958333333334 -0.14887708333333333 -0.36411875000000005 -0.156328125 -0.472578125 -0.022329166666666667 -0.3099010416666667 0.052109375 -0.635303125 0.20098645833333334 -0.8677229166666667l0.119096875 -0.17817812500000002Zm4.663154166666667 0.35973437500000005c0.060039583333333334 0 0.11087916666666667 0.020125 0.15251875 0.060398958333333336 0.041615625 0.04025 0.06243541666666667 0.09108958333333333 0.06243541666666667 0.15251875v1.9161395833333335c0 0.31936458333333334 -0.111909375 0.5895666666666667 -0.335728125 0.810678125 -0.22657395833333333 0.22381875 -0.4967760416666667 0.335728125 -0.810678125 0.335728125 -0.3166333333333334 0 -0.5868593750000001 -0.111909375 -0.810678125 -0.335728125 -0.22384270833333333 -0.22384270833333333 -0.33575208333333334 -0.4940447916666667 -0.33575208333333334 -0.810678125s0.111909375 -0.5868593750000001 0.33575208333333334 -0.810678125c0.22381875 -0.22381875 0.4940447916666667 -0.335728125 0.810678125 -0.335728125 0.2715916666666667 0 0.5111031250000001 0.08392604166666667 0.718534375 0.251778125v-1.0215114583333333c0 -0.061429166666666674 0.02014895833333333 -0.11226875000000001 0.060398958333333336 -0.15251875 0.04027395833333333 -0.04027395833333333 0.09108958333333333 -0.060398958333333336 0.15251875 -0.060398958333333336Zm1.6050645833333332 0.9826510416666666c0.31390208333333336 0 0.5841041666666668 0.111909375 0.810678125 0.335728125 0.111909375 0.111909375 0.1955 0.23541458333333334 0.250771875 0.37053958333333337 0.055271875 0.13510104166666667 0.083590625 0.281821875 0.08495625000000001 0.44013854166666666 0 0.31936458333333334 -0.111909375 0.5895666666666667 -0.335728125 0.810678125 -0.22657395833333333 0.22381875 -0.4967760416666667 0.335728125 -0.810678125 0.335728125 -0.3166333333333334 0 -0.5868593750000001 -0.111909375 -0.810678125 -0.335728125 -0.22384270833333333 -0.22384270833333333 -0.33575208333333334 -0.4940447916666667 -0.33575208333333334 -0.810678125s0.111909375 -0.5868593750000001 0.33575208333333334 -0.810678125c0.22381875 -0.22381875 0.4940447916666667 -0.335728125 0.810678125 -0.335728125Zm2.532419791666667 0c0.2879552083333333 0 0.5370260416666667 0.092790625 0.7472125 0.27839583333333334 0.04913854166666667 0.043676041666666665 0.07369583333333334 0.09758229166666667 0.07369583333333334 0.16174270833333335 0 0.06140520833333333 -0.020125 0.11258020833333333 -0.060398958333333336 0.15352500000000002 -0.04025 0.04094479166666667 -0.09108958333333333 0.061429166666666674 -0.15249479166666666 0.061429166666666674 -0.051869791666666665 0 -0.09827708333333333 -0.016387500000000003 -0.139221875 -0.04913854166666667 -0.06959895833333334 -0.05869791666666667 -0.14262395833333336 -0.10304479166666666 -0.21905104166666667 -0.13306458333333335 -0.07642708333333334 -0.030019791666666667 -0.15965833333333335 -0.04504166666666667 -0.24974166666666667 -0.04504166666666667 -0.09964270833333333 0 -0.193128125 0.018759375 -0.28045625 0.05630208333333333 -0.08735208333333333 0.03751875 -0.16377916666666667 0.08869375 -0.22928125 0.15352500000000002 -0.06552604166666667 0.06483125 -0.11703645833333333 0.14092291666666665 -0.15457916666666668 0.228275 -0.03751875 0.087328125 -0.056278125 0.1808135416666667 -0.056278125 0.28045625 0 0.09961875 0.018759375 0.1931041666666667 0.056278125 0.28045625 0.037542708333333334 0.08735208333333333 0.089053125 0.16341979166666668 0.15457916666666668 0.22825104166666668 0.06550208333333334 0.06483125 0.1419291666666667 0.11600625 0.22928125 0.15354895833333335 0.087328125 0.03751875 0.1808135416666667 0.05630208333333333 0.28045625 0.05630208333333333 0.09008333333333333 0 0.17331458333333336 -0.014686458333333334 0.24974166666666667 -0.044011458333333336 0.07642708333333334 -0.029348958333333335 0.14875729166666668 -0.07336041666666668 0.21701458333333334 -0.13205833333333333 0.03821354166666667 -0.028654166666666668 0.08325520833333333 -0.043676041666666665 0.13510104166666667 -0.04504166666666667 0.061429166666666674 0 0.11226875000000001 0.02014895833333333 0.15251875 0.060398958333333336 0.04027395833333333 0.04027395833333333 0.060398958333333336 0.09108958333333333 0.060398958333333336 0.15251875 0 0.060039583333333334 -0.022520833333333334 0.11258020833333333 -0.0675625 0.15762187500000002 -0.21155208333333334 0.18560520833333335 -0.4606229166666667 0.27841979166666664 -0.7472125 0.27841979166666664 -0.3166333333333334 0 -0.5868593750000001 -0.111909375 -0.810678125 -0.335728125 -0.22381875 -0.22384270833333333 -0.335728125 -0.4940447916666667 -0.335728125 -0.810678125s0.111909375 -0.5868593750000001 0.335728125 -0.810678125c0.22381875 -0.22381875 0.4940447916666667 -0.335728125 0.810678125 -0.335728125Zm1.27750625 -0.9826510416666666c0.05869791666666667 0 0.10884270833333333 0.020819791666666667 0.15045833333333333 0.06243541666666667 0.041639583333333334 0.041639583333333334 0.062459375 0.09247916666666667 0.062459375 0.15251875v1.5967989583333335l1.2241989583333335 -0.7963510416666667c0.03411666666666667 -0.02185 0.07233020833333334 -0.03275104166666667 0.114640625 -0.03275104166666667 0.030019791666666667 0 0.058003125 0.005438541666666667 0.08392604166666667 0.01636354166666667 0.025922916666666667 0.010925 0.04844375 0.02628229166666667 0.0675625 0.046071875 0.019094791666666666 0.019789583333333336 0.034452083333333335 0.042645833333333334 0.04604791666666667 0.06856875000000001 0.011619791666666667 0.025922916666666667 0.017417708333333334 0.053235416666666674 0.017417708333333334 0.08188958333333334 0 0.07642708333333334 -0.027312500000000003 0.13306458333333335 -0.08188958333333334 0.16991250000000002l-0.85775625 0.5568395833333333 0.8802770833333333 0.9908208333333334c0.03957916666666667 0.043676041666666665 0.05936875 0.09348541666666667 0.05936875 0.14945208333333335 0 0.028654166666666668 -0.0057979166666666665 0.05594270833333334 -0.017417708333333334 0.081865625 -0.011595833333333333 0.025946874999999998 -0.026953125 0.048803125 -0.04604791666666667 0.06859270833333334 -0.01911875 0.019789583333333336 -0.041639583333333334 0.035146875 -0.0675625 0.04604791666666667 -0.025922916666666667 0.010925 -0.05390625 0.016387500000000003 -0.08392604166666667 0.016387500000000003 -0.057332291666666674 0 -0.10508125 -0.018423958333333334 -0.14329479166666667 -0.055271875l-0.9458031250000001 -1.0624802083333333 -0.24974166666666667 0.16377916666666667v0.7390187500000001c0 0.05869791666666667 -0.020819791666666667 0.109178125 -0.062459375 0.15148854166666667 -0.041615625 0.04231041666666667 -0.09176041666666668 0.06346562500000001 -0.15045833333333333 0.06346562500000001 -0.060039583333333334 0 -0.11087916666666667 -0.021155208333333335 -0.15251875 -0.06346562500000001 -0.041615625 -0.04231041666666667 -0.06243541666666667 -0.092790625 -0.06243541666666667 -0.15148854166666667V10.343147916666666c0 -0.060039583333333334 0.020819791666666667 -0.11087916666666667 0.06243541666666667 -0.15251875 0.041639583333333334 -0.041615625 0.09247916666666667 -0.06243541666666667 0.15251875 -0.06243541666666667Zm3.14453125 0.9826510416666666c0.31390208333333336 0 0.584128125 0.111909375 0.810678125 0.335728125 0.111909375 0.11054375 0.19583541666666668 0.2337135416666667 0.2518020833333333 0.36950937500000003 0.05594270833333334 0.13579583333333334 0.08392604166666667 0.2828520833333334 0.08392604166666667 0.44116875 0 0.06140520833333333 -0.020819791666666667 0.11224479166666668 -0.06243541666666667 0.15251875 -0.041615625 0.04025 -0.09245520833333334 0.060375000000000005 -0.15251875 0.060375000000000005h-1.62135625c0.023215625 0.07506145833333334 0.057332291666666674 0.14365416666666667 0.10237395833333333 0.20575416666666668s0.09791770833333334 0.11531145833333334 0.15865208333333333 0.15968229166666667c0.060734375 0.044346875 0.12760208333333334 0.07879895833333335 0.20062708333333334 0.10338020833333333 0.07300104166666667 0.024557291666666665 0.14909270833333332 0.03684791666666667 0.22825104166666668 0.03684791666666667 0.09008333333333333 0 0.17264375 -0.013656250000000002 0.24770520833333334 -0.04094479166666667 0.07506145833333334 -0.027312500000000003 0.14466041666666668 -0.06825729166666666 0.20882083333333334 -0.12283437500000001 0.04094479166666667 -0.03411666666666667 0.08802291666666667 -0.051869791666666665 0.14123437500000002 -0.053235416666666674 0.061429166666666674 0 0.11226875000000001 0.020125 0.15251875 0.060398958333333336 0.04027395833333333 0.04025 0.060398958333333336 0.09108958333333333 0.060398958333333336 0.15251875 0 0.060039583333333334 -0.020484375000000003 0.11121458333333334 -0.061429166666666674 0.15352500000000002 -0.211528125 0.18560520833333335 -0.46129375 0.27841979166666664 -0.7492489583333334 0.27841979166666664 -0.3166333333333334 0 -0.5868593750000001 -0.111909375 -0.810678125 -0.335728125 -0.22381875 -0.22384270833333333 -0.335728125 -0.4940447916666667 -0.335728125 -0.810678125s0.111909375 -0.5868593750000001 0.335728125 -0.810678125c0.22381875 -0.22381875 0.4940447916666667 -0.335728125 0.810678125 -0.335728125Zm2.5283229166666668 0c0.060063541666666664 0 0.12453541666666668 0.004072916666666667 0.19346354166666668 0.012266666666666667 0.068928125 0.008193750000000001 0.13236979166666668 0.02285625 0.19037291666666667 0.044011458333333336 0.058003125 0.021155208333333335 0.10611145833333334 0.050168750000000005 0.144325 0.08701666666666667 0.03821354166666667 0.03684791666666667 0.057332291666666674 0.08462083333333334 0.057332291666666674 0.14329479166666667 0 0.030019791666666667 -0.0057979166666666665 0.058003125 -0.01739375 0.08392604166666667 -0.011595833333333333 0.025946874999999998 -0.026953125 0.048803125 -0.046071875 0.06859270833333334 -0.019094791666666666 0.019789583333333336 -0.041615625 0.035146875 -0.0675625 0.04604791666666667 -0.025922916666666667 0.010925 -0.05390625 0.016387500000000003 -0.08392604166666667 0.016387500000000003 -0.025922916666666667 0 -0.05594270833333334 -0.007498958333333334 -0.09008333333333333 -0.022520833333333334 -0.08596250000000001 -0.03411666666666667 -0.17944791666666668 -0.051175000000000005 -0.28045625 -0.051175000000000005 -0.09961875 0 -0.1931041666666667 0.018759375 -0.28045625 0.05630208333333333 -0.08735208333333333 0.03751875 -0.16344375000000003 0.08869375 -0.22825104166666668 0.15352500000000002 -0.06483125 0.06483125 -0.11600625 0.14092291666666665 -0.15354895833333335 0.228275 -0.03751875 0.087328125 -0.05630208333333333 0.1808135416666667 -0.05630208333333333 0.28045625v0.9335125c0 0.05867395833333334 -0.020795833333333336 0.10881875 -0.06243541666666667 0.15045833333333333 -0.041615625 0.041615625 -0.091784375 0.06243541666666667 -0.15045833333333333 0.06243541666666667 -0.060063541666666664 0 -0.11087916666666667 -0.020819791666666667 -0.15251875 -0.06243541666666667 -0.041615625 -0.041639583333333334 -0.06243541666666667 -0.091784375 -0.06243541666666667 -0.15045833333333333v-1.867025c0 -0.05867395833333334 0.020819791666666667 -0.10884270833333333 0.06243541666666667 -0.15045833333333333 0.041639583333333334 -0.041639583333333334 0.09245520833333334 -0.06243541666666667 0.15251875 -0.06243541666666667 0.05867395833333334 0 0.10884270833333333 0.020795833333333336 0.15045833333333333 0.06243541666666667 0.041639583333333334 0.041615625 0.06243541666666667 0.091784375 0.06243541666666667 0.15045833333333333v0.04094479166666667c0.10237395833333333 -0.08188958333333334 0.21358854166666666 -0.14466041666666668 0.33369166666666666 -0.18833645833333335 0.12010312499999999 -0.043676041666666665 0.2484 -0.06550208333333334 0.3848666666666667 -0.06550208333333334Zm-12.019296875 0.4278479166666667c-0.10100833333333332 0 -0.19516458333333334 0.019094791666666666 -0.2825166666666667 0.057308333333333336 -0.08735208333333333 0.03821354166666667 -0.163084375 0.08974791666666666 -0.22724479166666667 0.15457916666666668 -0.06413645833333334 0.06483125 -0.11497604166666667 0.14089895833333332 -0.15249479166666666 0.22825104166666668 -0.037542708333333334 0.08735208333333333 -0.05630208333333333 0.18014270833333335 -0.05630208333333333 0.27841979166666664 0 0.09825312500000001 0.018759375 0.19106770833333334 0.05630208333333333 0.27841979166666664 0.03751875 0.087328125 0.08835833333333334 0.16341979166666668 0.15249479166666666 0.22825104166666668 0.06416041666666666 0.06483125 0.13989270833333334 0.11634166666666666 0.22724479166666667 0.15455520833333333 0.08735208333333333 0.03821354166666667 0.18150833333333335 0.057332291666666674 0.2825166666666667 0.057332291666666674 0.09961875 0 0.1931041666666667 -0.01911875 0.28045625 -0.057332291666666674 0.08735208333333333 -0.03821354166666667 0.16341979166666668 -0.09008333333333333 0.22825104166666668 -0.15558541666666667 0.06483125 -0.06550208333333334 0.11600625 -0.14159375 0.15354895833333335 -0.22825104166666668 0.03751875 -0.08665729166666668 0.056278125 -0.17913645833333336 0.056278125 -0.27738958333333336 0 -0.09827708333333333 -0.018759375 -0.1907322916666667 -0.056278125 -0.27738958333333336 -0.037542708333333334 -0.08668125 -0.08871770833333334 -0.16274895833333333 -0.15354895833333335 -0.228275 -0.06483125 -0.06550208333333334 -0.14089895833333332 -0.117371875 -0.22825104166666668 -0.15558541666666667 -0.08735208333333333 -0.03821354166666667 -0.1808375 -0.057308333333333336 -0.28045625 -0.057308333333333336Zm2.5365166666666665 0c-0.10100833333333332 0 -0.19516458333333334 0.019094791666666666 -0.2825166666666667 0.057308333333333336 -0.08735208333333333 0.03821354166666667 -0.163084375 0.08974791666666666 -0.22724479166666667 0.15457916666666668 -0.06413645833333334 0.06483125 -0.11497604166666667 0.14089895833333332 -0.15249479166666666 0.22825104166666668 -0.037542708333333334 0.08735208333333333 -0.05630208333333333 0.18014270833333335 -0.05630208333333333 0.27841979166666664 0 0.09825312500000001 0.018759375 0.19106770833333334 0.05630208333333333 0.27841979166666664 0.03751875 0.087328125 0.08835833333333334 0.16341979166666668 0.15249479166666666 0.22825104166666668 0.06416041666666666 0.06483125 0.13989270833333334 0.11634166666666666 0.22724479166666667 0.15455520833333333 0.08735208333333333 0.03821354166666667 0.18150833333333335 0.057332291666666674 0.2825166666666667 0.057332291666666674 0.09961875 0 0.1931041666666667 -0.01911875 0.28045625 -0.057332291666666674 0.08735208333333333 -0.03821354166666667 0.16341979166666668 -0.09008333333333333 0.22825104166666668 -0.15558541666666667 0.06483125 -0.06550208333333334 0.11600625 -0.14159375 0.15354895833333335 -0.22825104166666668 0.03751875 -0.08665729166666668 0.056278125 -0.17913645833333336 0.056278125 -0.27738958333333336 0 -0.09827708333333333 -0.018759375 -0.1907322916666667 -0.056278125 -0.27738958333333336 -0.037542708333333334 -0.08668125 -0.08871770833333334 -0.16274895833333333 -0.15354895833333335 -0.228275 -0.06483125 -0.06550208333333334 -0.14089895833333332 -0.117371875 -0.22825104166666668 -0.15558541666666667 -0.08735208333333333 -0.03821354166666667 -0.1808375 -0.057308333333333336 -0.28045625 -0.057308333333333336Zm6.954457291666667 0c-0.07779270833333334 0 -0.15354895833333335 0.012290625 -0.22724479166666667 0.03684791666666667s-0.14123437500000002 0.05903333333333334 -0.20266354166666667 0.10338020833333333c-0.06140520833333333 0.044346875 -0.114640625 0.09758229166666667 -0.15968229166666667 0.15968229166666667s-0.07846354166666668 0.13066875 -0.10031354166666667 0.20573020833333336h1.3798083333333333c-0.023215625 -0.07506145833333334 -0.05766770833333334 -0.14363020833333334 -0.10340416666666667 -0.20573020833333336 -0.0457125 -0.0621 -0.09892395833333334 -0.11533541666666668 -0.15965833333333335 -0.15968229166666667s-0.12762604166666666 -0.07882291666666667 -0.20062708333333334 -0.10338020833333333c-0.073025 -0.024557291666666665 -0.148421875 -0.03684791666666667 -0.22621458333333336 -0.03684791666666667ZM1.6747977083333334 10.496720833333333v0.7747166666666667H0.8559833333333333v-0.7747166666666667h0.8188143750000001Zm0.9676866666666667 0v0.7747166666666667H1.8236747916666667v-0.7747166666666667h0.8188095833333333Zm0.9677010416666668 0v0.7747166666666667h-0.8188239583333333v-0.7747166666666667h0.8188239583333333Zm0.9676770833333334 0v0.7747166666666667H3.7590625v-0.7747166666666667h0.8188000000000001Zm0.9677010416666668 0v0.7747166666666667H4.726739583333333v-0.7747166666666667h0.8188239583333333Zm-0.9677010416666668 -0.9297031250000001v0.774740625H3.7590625v-0.774740625h0.8188000000000001Zm-0.9676770833333334 0v0.774740625h-0.8188239583333333v-0.774740625h0.8188239583333333Zm-0.9677010416666668 0v0.774740625H1.8236747916666667v-0.774740625h0.8188095833333333Zm1.935378125 -0.9296791666666666v0.774740625H3.7590625v-0.774740625h0.8188000000000001Z" stroke-width="1"></path></svg>