<svg xmlns="http://www.w3.org/2000/svg" fill="none" viewBox="-0.5 -0.5 24 24" id="Mocha--Streamline-Svg-Logos.svg" height="24" width="24"><desc>Mocha Streamline Icon: https://streamlinehq.com</desc><path fill="#8D6748" d="M20.808147916666666 17.568430208333332 12.10446875 22.597260416666668c-0.3747322916666667 0.2175416666666667 -0.8341333333333333 0.2175416666666667 -1.208865625 0L2.1919071875 17.568430208333332c-0.37474187500000006 -0.2176135416666667 -0.6044328125 -0.6165197916666667 -0.6044328125 -1.0395760416666668V6.471145833333334c0 -0.43513125 0.2296909375 -0.8219625 0.6044328125 -1.0395760416666668L10.895603125000001 0.40273479166666665c0.3747322916666667 -0.21753495833333333 0.8341333333333333 -0.21753495833333333 1.208865625 0L20.808147916666666 5.431569791666667c0.37475625 0.2176135416666667 0.6044447916666666 0.6165197916666667 0.6044447916666666 1.0395760416666668v10.057708333333332c-0.012075 0.42305625 -0.2417635416666667 0.8219625 -0.6044447916666666 1.0395760416666668Z" stroke-width="1"></path><path fill="#ffffff" d="M11.487924999999999 1.7687982291666668c-0.18129270833333336 0 -0.3626572916666667 0.04832395833333333 -0.5198 0.14504854166666667L3.4490656250000002 6.253604166666667c-0.32640833333333336 0.18138854166666668 -0.5197760416666667 0.5318750000000001 -0.5197760416666667 0.8945322916666667v8.679529166666667c0 0.37475625 0.19336770833333336 0.7132395833333334 0.5197760416666667 0.8946041666666666L10.968125 21.062034375000003c0.15714270833333335 0.09674375 0.3385072916666667 0.14506770833333335 0.5198 0.14506770833333335 0.18129270833333336 0 0.3626572916666667 -0.04832395833333333 0.5198 -0.14506770833333335l7.519059375 -4.339764583333333c0.32640833333333336 -0.18136458333333333 0.5197760416666667 -0.531946875 0.5197760416666667 -0.8945083333333333v-8.679625000000001c0 -0.3747322916666667 -0.19336770833333336 -0.71314375 -0.5197760416666667 -0.8945322916666667L12.007725 1.9138467708333333c-0.15714270833333335 -0.09672458333333334 -0.3385072916666667 -0.14504854166666667 -0.5198 -0.14504854166666667Zm0 0.36266208333333333c0.12089375000000002 0 0.22968854166666666 0.03624177083333333 0.3385072916666667 0.09672458333333334L19.345419791666668 6.5679375c0.20551458333333333 0.12089375000000002 0.33848333333333336 0.3505822916666667 0.33848333333333336 0.5923697916666667v8.679529166666667c0 0.2417635416666667 -0.13296875000000002 0.4713802083333334 -0.33848333333333336 0.5922739583333334L11.826432291666666 20.771875c-0.10881875 0.06047083333333334 -0.2176135416666667 0.09671979166666667 -0.3385072916666667 0.09671979166666667s-0.2417635416666667 -0.03624895833333333 -0.3385072916666667 -0.09671979166666667L3.6304302083333337 16.432110416666667c-0.20551458333333333 -0.12089375000000002 -0.33848333333333336 -0.3505104166666667 -0.33848333333333336 -0.5922739583333334V7.160307291666667c0 -0.24178750000000004 0.13296875000000002 -0.4714760416666667 0.33848333333333336 -0.5923697916666667L11.149417708333335 2.2281848958333335c0.10881875 -0.060482812500000004 0.22971250000000001 -0.09672458333333334 0.3385072916666667 -0.09672458333333334ZM10.792821875 9.698884375h1.0154020833333333c0.03632083333333334 0 0.06049479166666667 -0.012170833333333334 0.08464479166666668 -0.03632083333333334 0.6044447916666666 -0.67691875 0.664915625 -2.0913229166666665 0.664915625 -2.5143791666666666 0 -0.060422916666666666 -0.04839583333333334 -0.12089375000000002 -0.12086979166666666 -0.12089375000000002h-2.2726875000000004c-0.060422916666666666 0 -0.12089375000000002 0.04832395833333333 -0.12089375000000002 0.12089375000000002 0 0.41098125 0.06047083333333334 1.8253614583333333 0.664915625 2.5143791666666666 0.02415 0.02415 0.04832395833333333 0.03632083333333334 0.08457291666666666 0.03632083333333334Zm-0.27801250000000005 -2.2968614583333333h1.5956729166666666c0.060398958333333336 0 0.12089375000000002 0.04832395833333333 0.12089375000000002 0.12089375000000002 0 0.3385072916666667 -0.06049479166666667 1.2934385416666667 -0.4714760416666667 1.7890645833333334 -0.036225 0.024245833333333335 -0.060398958333333336 0.03632083333333334 -0.09671979166666667 0.03632083333333334h-0.7131677083333334c-0.03632083333333334 0 -0.06047083333333334 -0.012075 -0.08464479166666668 -0.03632083333333334 -0.411053125 -0.4834791666666666 -0.4593770833333333 -1.4505572916666667 -0.4714520833333333 -1.7890645833333334 0 -0.060398958333333336 0.04832395833333333 -0.12089375000000002 0.12089375000000002 -0.12089375000000002Zm1.0154260416666667 -0.6164958333333334s0.4352270833333334 -0.25386250000000005 0.16921770833333336 -0.7132395833333334c-0.15714270833333335 -0.24178750000000004 -0.2296166666666667 -0.4472302083333334 -0.16921770833333336 -0.5318750000000001 -0.15714270833333335 0.19343958333333333 -0.4230802083333334 0.39890625 -0.13296875000000002 0.8341333333333333 0.09671979166666667 0.10879479166666667 0.14504375000000003 0.33841145833333336 0.13296875000000002 0.41098125Zm-0.4835270833333334 0.03624895833333333s0.29008750000000005 -0.16921770833333336 0.10879479166666667 -0.4835510416666667c-0.10879479166666667 -0.15711875000000003 -0.15711875000000003 -0.30216250000000006 -0.10879479166666667 -0.3505822916666667 -0.10881875 0.13296875000000002 -0.27801250000000005 0.26593750000000005 -0.08464479166666668 0.5681958333333333 0.06047083333333334 0.060398958333333336 0.08464479166666668 0.2176135416666667 0.08464479166666668 0.26593750000000005Zm-0.03627291666666667 2.381434375h0.6044208333333334c0.024173958333333335 0 0.04832395833333333 -0.012075 0.07249791666666666 -0.036225 0.20553854166666669 -0.24178750000000004 0.30225833333333335 -0.6165197916666667 0.3505822916666667 -0.9429520833333334 0 0 -0.012075 0.10881875 -0.30218645833333335 0.2176135416666667 -0.39890625 0.14506770833333335 -1.100046875 0.04832395833333333 -1.100046875 0.04832395833333333 0.060398958333333336 0.25386250000000005 0.15711875000000003 0.49562604166666674 0.30216250000000006 0.6770145833333334 0.012075 0.02415 0.04839583333333334 0.036225 0.07256979166666667 0.036225ZM6.46515625 12.600070833333334v-2.4176354166666667h-0.4473020833333333l-0.7373895833333334 1.1362958333333333 -0.7374135416666667 -1.1362958333333333h-0.4472302083333334v2.4297343750000002h0.4230802083333334v-1.728665625l0.7494645833333334 1.1242208333333334h0.012098958333333335l0.7616354166666667 -1.1362958333333333v1.7286416666666669h0.42305625Zm2.7078427083333336 -2.3692875000000004c-0.157190625 -0.06049479166666667 -0.32640833333333336 -0.09671979166666667 -0.5077010416666666 -0.09671979166666667 -0.18136458333333333 0 -0.3505822916666667 0.02415 -0.5077729166666667 0.09671979166666667 -0.15714270833333335 0.060398958333333336 -0.29011145833333335 0.15711875000000003 -0.39890625 0.26593750000000005 -0.12089375000000002 0.12086979166666666 -0.2054666666666667 0.2538385416666667 -0.26593750000000005 0.39890625 -0.060398958333333336 0.15711875000000003 -0.09671979166666667 0.31423750000000006 -0.09671979166666667 0.4835270833333334v0.012098958333333335c0 0.16919375000000003 0.03632083333333334 0.33848333333333336 0.09671979166666667 0.4835270833333334 0.06047083333333334 0.15714270833333335 0.14504375000000003 0.29011145833333335 0.2538385416666667 0.39890625 0.10881875 0.10881875 0.24178750000000004 0.20553854166666669 0.39890625 0.26593750000000005 0.15721458333333335 0.06049479166666667 0.3264322916666667 0.09671979166666667 0.5077250000000001 0.09671979166666667 0.18136458333333333 0 0.3505822916666667 -0.02415 0.5077729166666667 -0.09671979166666667 0.15714270833333335 -0.060398958333333336 0.29011145833333335 -0.15711875000000003 0.39890625 -0.26593750000000005 0.12089375000000002 -0.12086979166666666 0.20544270833333336 -0.2538385416666667 0.26593750000000005 -0.39890625 0.060398958333333336 -0.15711875000000003 0.09671979166666667 -0.31433333333333335 0.09671979166666667 -0.4835270833333334v-0.012098958333333335c0 -0.16928958333333335 -0.03632083333333334 -0.33848333333333336 -0.09671979166666667 -0.4835270833333334 -0.06049479166666667 -0.15714270833333335 -0.14504375000000003 -0.29011145833333335 -0.25386250000000005 -0.39890625 -0.10879479166666667 -0.10881875 -0.2417635416666667 -0.20553854166666669 -0.39890625 -0.26593750000000005Zm0.29011145833333335 1.1725447916666667c0 0.10879479166666667 -0.024173958333333335 0.2176135416666667 -0.06049479166666667 0.32640833333333336 -0.04832395833333333 0.09664791666666667 -0.09664791666666667 0.19336770833333336 -0.16919375000000003 0.26593750000000005 -0.07249791666666666 0.07249791666666666 -0.15714270833333335 0.13296875000000002 -0.25386250000000005 0.18129270833333336 -0.09671979166666667 0.04839583333333334 -0.20553854166666669 0.07256979166666667 -0.32640833333333336 0.07256979166666667 -0.108746875 0 -0.2296166666666667 -0.024173958333333335 -0.3263604166666667 -0.07256979166666667 -0.09671979166666667 -0.04832395833333333 -0.18136458333333333 -0.10879479166666667 -0.2538385416666667 -0.18129270833333336 -0.07256979166666667 -0.08464479166666668 -0.13296875000000002 -0.16928958333333335 -0.16928958333333335 -0.27801250000000005 -0.03624895833333333 -0.10879479166666667 -0.060398958333333336 -0.2176135416666667 -0.060398958333333336 -0.3385072916666667v-0.012075c0 -0.10879479166666667 0.02415 -0.2176135416666667 0.060398958333333336 -0.32640833333333336 0.04839583333333334 -0.09671979166666667 0.09671979166666667 -0.19336770833333336 0.16928958333333335 -0.26593750000000005 0.07247395833333334 -0.07256979166666667 0.15711875000000003 -0.13296875000000002 0.2538385416666667 -0.18136458333333333 0.09674375 -0.04832395833333333 0.2054666666666667 -0.07249791666666666 0.3263604166666667 -0.07249791666666666 0.12086979166666666 0 0.22968854166666666 0.024173958333333335 0.32640833333333336 0.07249791666666666 0.09671979166666667 0.04839583333333334 0.18136458333333333 0.10879479166666667 0.25386250000000005 0.18136458333333333 0.07254583333333334 0.08464479166666668 0.13296875000000002 0.16921770833333336 0.16919375000000003 0.27801250000000005 0.03632083333333334 0.10879479166666667 0.06049479166666667 0.2176135416666667 0.06049479166666667 0.3385072916666667v0.012075Zm1.7890885416666669 -0.3626572916666667c0.04832395833333333 -0.09671979166666667 0.09671979166666667 -0.19346354166666668 0.16921770833333336 -0.26593750000000005 0.07254583333333334 -0.07256979166666667 0.157190625 -0.13296875000000002 0.2538385416666667 -0.18136458333333333 0.09674375 -0.04832395833333333 0.19346354166666668 -0.07249791666666666 0.3143572916666667 -0.07249791666666666 0.14504375000000003 0 0.2659135416666667 0.024173958333333335 0.3747322916666667 0.08457291666666666 0.10879479166666667 0.06047083333333334 0.20553854166666669 0.133040625 0.30218645833333335 0.2176135416666667l0.27808437500000005 -0.31426145833333335c-0.06047083333333334 -0.06049479166666667 -0.12089375000000002 -0.10881875 -0.18136458333333333 -0.15721458333333335 -0.060398958333333336 -0.04832395833333333 -0.13296875000000002 -0.08454895833333334 -0.2054666666666667 -0.12086979166666666 -0.08464479166666668 -0.024173958333333335 -0.157190625 -0.04832395833333333 -0.25393437500000005 -0.07249791666666666 -0.09664791666666667 -0.012075 -0.19336770833333336 -0.02415 -0.30216250000000006 -0.02415 -0.19346354166666668 0 -0.3505822916666667 0.036225 -0.5077250000000001 0.09664791666666667 -0.15711875000000003 0.06047083333333334 -0.29008750000000005 0.157190625 -0.39888229166666667 0.26600937500000005 -0.10881875 0.12086979166666666 -0.19346354166666668 0.2538385416666667 -0.25386250000000005 0.39890625 -0.06049479166666667 0.14504375000000003 -0.09671979166666667 0.31423750000000006 -0.09671979166666667 0.4835270833333334v0.012098958333333335c0 0.16919375000000003 0.036225 0.32633645833333336 0.09671979166666667 0.4835270833333334 0.060398958333333336 0.15714270833333335 0.14504375000000003 0.29011145833333335 0.25386250000000005 0.39890625 0.10879479166666667 0.10881875 0.2417635416666667 0.20553854166666669 0.3868072916666667 0.26593750000000005 0.14504375000000003 0.06049479166666667 0.30218645833333335 0.09671979166666667 0.4835510416666667 0.09671979166666667 0.10879479166666667 0 0.2175416666666667 0 0.32633645833333336 -0.02415 0.08464479166666668 -0.012075 0.18136458333333333 -0.04839583333333334 0.25386250000000005 -0.08464479166666668 0.07256979166666667 -0.03624895833333333 0.145115625 -0.07256979166666667 0.2176135416666667 -0.13296875000000002 0.07254583333333334 -0.06047083333333334 0.13296875000000002 -0.10879479166666667 0.19343958333333333 -0.18136458333333333l-0.27801250000000005 -0.27801250000000005c-0.10879479166666667 0.09671979166666667 -0.2176135416666667 0.16928958333333335 -0.31433333333333335 0.22968854166666666 -0.09671979166666667 0.06047083333333334 -0.22968854166666666 0.08464479166666668 -0.3747322916666667 0.08464479166666668 -0.10881875 0 -0.2176135416666667 -0.03632083333333334 -0.3143572916666667 -0.07256979166666667 -0.09664791666666667 -0.03624895833333333 -0.18129270833333336 -0.10879479166666667 -0.2538385416666667 -0.18129270833333336 -0.07249791666666666 -0.08464479166666668 -0.13296875000000002 -0.16928958333333335 -0.16921770833333336 -0.27808437500000005 -0.03624895833333333 -0.10872291666666667 -0.06047083333333334 -0.2175416666666667 -0.06047083333333334 -0.3384354166666667v-0.012075c0 -0.10879479166666667 0.024221875 -0.2176135416666667 0.06047083333333334 -0.32640833333333336Zm2.5506760416666667 -0.8582833333333333v2.4176593750000004h0.42305625v-1.0154020833333333h1.1605416666666668v1.0154020833333333h0.4230802083333334V10.1823875h-0.4230802083333334v1.0033510416666667h-1.1605416666666668v-1.0033510416666667H13.802875Zm4.641998958333334 1.8374604166666668 0.24178750000000004 0.5802708333333334h0.44720625L18.070141666666665 10.170312500000001h-0.386903125l-1.0637500000000002 2.42980625h0.4351552083333334l0.25386250000000005 -0.5802708333333334h1.1363677083333334Zm-0.5681958333333333 -1.341834375 0.41100520833333337 0.9671020833333334h-0.8219864583333333l0.41098125 -0.9671020833333334ZM3.7936104166666667 13.494603125h15.412803125v-0.13296875000000002H3.7936104166666667v0.13296875000000002Zm8.860845833333334 -4.678223958333334c0 0.04832395833333333 -0.012075 0.08464479166666668 -0.012075 0.13296875000000002H19.2064375v-0.13296875000000002H12.65445625Zm-2.695719791666667 0H3.7935864583333334v0.13296875000000002h6.177225000000001c0 -0.04832395833333333 -0.012075 -0.08464479166666668 -0.012075 -0.13296875000000002Z" stroke-width="1"></path></svg>