<svg xmlns="http://www.w3.org/2000/svg" fill="none" viewBox="-0.5 -0.5 24 24" id="Mongodb-Icon--Streamline-Svg-Logos.svg" height="24" width="24"><desc>Mongodb Icon Streamline Icon: https://streamlinehq.com</desc><path fill="#01EC64" d="M13.456197916666667 2.7496739583333336c-0.9451802083333334 -1.1214320833333333 -1.7591166666666667 -2.2603944791666666 -1.9253875000000003 -2.496949479166667 -0.017513541666666667 -0.0175216875 -0.043771875 -0.0175216875 -0.06126145833333333 0 -0.1662947916666667 0.23655500000000002 -0.9802072916666668 1.3755173958333335 -1.9254114583333335 2.496949479166667C1.4312325000000001 13.096703125 10.821907291666667 20.07947916666667 10.821907291666667 20.07947916666667l0.078775 0.05256458333333334C10.970688541666668 21.209641666666666 11.145728125 22.760416666666668 11.145728125 22.760416666666668h0.700134375s0.17503958333333336 -1.5420302083333335 0.24506979166666665 -2.6283729166666667l0.07875104166666667 -0.06133333333333334c0.008744791666666666 0.00876875 9.399453125 -6.974007291666666 1.2865145833333334 -17.32103645833333Zm-1.9604145833333335 17.172063541666667s-0.42006145833333336 -0.35918333333333335 -0.5338395833333334 -0.5431354166666666v-0.017609375l0.5076052083333333 -11.266933333333334c0 -0.03505104166666667 0.05251666666666667 -0.03505104166666667 0.05251666666666667 0l0.50758125 11.266933333333334v0.017609375c-0.11375416666666667 0.18395208333333335 -0.5338635416666667 0.5431354166666666 -0.5338635416666667 0.5431354166666666Z" stroke-width="1"></path></svg>