<svg xmlns="http://www.w3.org/2000/svg" fill="none" viewBox="-0.5 -0.5 24 24" id="Spring-Icon--Streamline-Svg-Logos.svg" height="24" width="24"><desc>Spring Icon Streamline Icon: https://streamlinehq.com</desc><path fill="#6DB33F" d="M3.6655052083333337 3.4171770833333333c4.449541666666667 -4.310482708333334 11.564160416666667 -4.1946082291666675 15.874647916666667 0.27810833333333335 0.486665625 -0.6488875000000001 0.9038041666666667 -1.3673116666666667 1.2050802083333332 -2.1089011458333333C22.15889479166667 5.8968645833333335 23.016339583333334 9.512129166666668 22.691895833333334 12.316260416666667c-0.16222187500000002 2.363801041666667 -1.08919375 4.63493125 -2.6187177083333335 6.442539583333334 -3.98604375 4.727650000000001 -11.077494791666666 5.33010625 -15.805144791666669 1.3441343749999999l-0.09044270833333334 -0.08045208333333333 -0.004791666666666667 -0.0031625c-0.01480625 -0.010326041666666667 -0.029420833333333337 -0.021059375 -0.04379583333333333 -0.03224791666666667 -0.043148958333333334 -0.033565625 -0.08234479166666667 -0.07010208333333334 -0.11756354166666667 -0.10910625000000002l-0.012673958333333334 -0.014446875 -0.14787083333333334 -0.13136354166666667c-0.14418125 -0.12360104166666668 -0.2883864583333333 -0.24720208333333335 -0.41632395833333335 -0.3870708333333333l-0.047173958333333335 -0.053259375000000005C-0.9230810416666667 14.842283333333334 -0.7840340625 7.727664583333334 3.6655052083333337 3.4171770833333333Zm1.668578125 15.08670625c-0.4171385416666667 -0.32444375000000003 -1.019690625 -0.27808437500000005 -1.3441343749999999 0.13905416666666667 -0.28529583333333336 0.3668020833333333 -0.2838822916666667 0.876946875 0.004216666666666667 1.215334375l0.0046 0.005246875 0.17882499999999998 0.15896354166666668 0.017561458333333335 0.011955208333333333c0.4050635416666667 0.26636875 0.9500677083333334 0.21131250000000001 1.2609510416666667 -0.16516875l0.017034375 -0.021251041666666668c0.32444375000000003 -0.4171385416666667 0.2549166666666667 -1.019690625 -0.13905416666666667 -1.3441343749999999Zm15.2952875 -15.758761458333334C19.470626041666666 5.17845 16.596967708333334 7.032441666666666 14.117280208333334 7.611802083333334c-2.3406333333333333 0.5561927083333333 -4.380014583333334 0.09269479166666668 -6.535258333333333 0.926971875 -4.913039583333333 1.877159375 -4.820320833333333 7.717170833333333 -2.132076041666667 9.038137500000001l0.16222187500000002 0.09269479166666668s1.941822916666667 -0.3860885416666667 3.862035416666667 -0.8959697916666667l0.16449791666666666 -0.043987500000000006c0.7669541666666667 -0.20668854166666667 1.5214979166666667 -0.4319927083333333 2.1379458333333337 -0.65909375 3.198102083333333 -1.1819125000000001 6.7206479166666675 -4.101930208333333 7.87936875 -7.485421875 -0.602528125 3.5225458333333335 -3.6384083333333335 6.929229166666667 -6.674288541666667 8.481920833333334 -1.6222427083333333 0.8343010416666666 -2.8736583333333336 1.019690625 -5.538759375000001 1.9466864583333332 -0.32444375000000003 0.1158625 -0.5793604166666667 0.23174895833333337 -0.5793604166666667 0.23174895833333337 0.03251145833333333 -0.004504166666666667 0.065046875 -0.008864583333333334 0.09748645833333333 -0.013129166666666667l0.064759375 -0.008409375 0.06442395833333332 -0.008097916666666666c0.588584375 -0.07295312500000001 1.1174645833333334 -0.10941770833333334 1.1174645833333334 -0.10941770833333334 3.7774625 -0.18538958333333336 9.710192708333333 1.0660260416666667 12.467964583333334 -2.6187416666666667 2.8273229166666667 -3.7542947916666667 1.2514395833333334 -9.826055208333335 -0.046335416666666664 -13.742571875000001Z" stroke-width="1"></path><path fill="#ffffff" d="M5.334035416666667 18.503811458333335c0.3939708333333334 0.32444375000000003 0.4634739583333334 0.926971875 0.13903020833333335 1.3441343749999999 -0.32444375000000003 0.4171385416666667 -0.926971875 0.4634739583333334 -1.3441343749999999 0.13903020833333335 -0.4171385416666667 -0.32444375000000003 -0.4634739583333334 -0.926971875 -0.13903020833333335 -1.3441343749999999 0.32444375000000003 -0.4171385416666667 0.926971875 -0.4634739583333334 1.3441343749999999 -0.13903020833333335Zm15.295263541666667 -15.758785416666669c1.2977989583333334 3.916516666666667 2.8736583333333336 9.988277083333333 0.046359375 13.742571875000001 -2.7577958333333332 3.684791666666667 -8.690502083333334 2.4333520833333333 -12.467964583333334 2.6187416666666667 0 0 -0.5288802083333334 0.036488541666666666 -1.1174645833333334 0.10941770833333334l-0.06442395833333332 0.008121875c-0.053858333333333334 0.006876041666666667 -0.10805208333333334 0.014039583333333334 -0.16224583333333334 0.021514583333333337 0 0 0.2549166666666667 -0.1158625 0.5793604166666667 -0.23174895833333337 2.6650770833333333 -0.9269958333333335 3.916516666666667 -1.1123854166666667 5.538735416666667 -1.9466625 3.0359041666666666 -1.552715625 6.071784375 -4.959375 6.6743125 -8.481944791666667 -1.1587208333333334 3.3835156250000002 -4.681290625 6.303509375000001 -7.879392708333334 7.485421875 -2.201579166666667 0.811109375 -6.164455208333334 1.5990510416666666 -6.164455208333334 1.5990510416666666l-0.16222187500000002 -0.09269479166666668c-2.6882687499999998 -1.3209427083333334 -2.780963541666667 -7.160978125 2.132076041666667 -9.038113541666666 2.15524375 -0.8343010416666666 4.194601041666667 -0.370803125 6.535258333333333 -0.9269958333333335 2.4796875 -0.5793604166666667 5.353345833333334 -2.433328125 6.512066666666668 -4.866680208333333Z" stroke-width="1"></path></svg>