<svg xmlns="http://www.w3.org/2000/svg" fill="none" viewBox="-0.5 -0.5 24 24" id="Svelte-Icon--Streamline-Svg-Logos.svg" height="24" width="24"><desc>Svelte Icon Streamline Icon: https://streamlinehq.com</desc><path fill="#FF3E00" d="M19.675158333333332 3.219353125C17.58393125 0.22626896875000002 13.453778125 -0.6608906250000001 10.467467708333334 1.2417771875L5.222772916666666 4.584451041666667c-1.4325885416666666 0.9012885416666666 -2.4193604166666667 2.36425625 -2.718288541666667 4.030175 -0.25018729166666664 1.387834375 -0.03028333333333334 2.8194406250000004 0.6248572916666667 4.068196875 -0.44893125 0.681015625 -0.7551139583333334 1.4459572916666668 -0.9000594791666667 2.248657291666667 -0.3018294791666667 1.697903125 0.09299427083333334 3.4458312500000003 1.0953438541666667 4.849142708333333 2.091658333333333 2.9933541666666668 6.221835416666667 3.8801479166666666 9.207666666666668 1.9775687500000003l5.244694791666666 -3.3426666666666667c1.4327083333333335 -0.9011687500000001 2.419504166666667 -2.3642083333333335 2.7183125 -4.030175 0.25014895833333334 -1.3878104166666667 0.030403125000000003 -2.8193927083333334 -0.6244260416666667 -4.068292708333333 0.44881145833333336 -0.6809916666666667 0.7548791666666667 -1.4459333333333333 0.8996833333333334 -2.2485614583333335 0.30204270833333335 -1.697903125 -0.09281458333333334 -3.445903125 -1.0953270833333333 -4.849142708333333" stroke-width="1"></path><path fill="#ffffff" d="M9.9546875 20.065295833333334c-1.6910270833333334 0.4396833333333333 -3.476809375 -0.2222375 -4.472709375000001 -1.6579166666666667 -0.6030791666666666 -0.8441000000000001 -0.84065 -1.8956072916666666 -0.6590697916666667 -2.9169989583333336 0.030451041666666664 -0.16600729166666667 0.07233020833333334 -0.329690625 0.12537395833333334 -0.4899239583333334l0.09880416666666667 -0.30125208333333336 0.26878854166666666 0.19741666666666666c0.6207125000000001 0.45609479166666667 1.3147614583333334 0.8028677083333334 2.0521989583333333 1.02536875l0.194996875 0.059153125 -0.01796875 0.19458958333333334c-0.023814583333333333 0.27683854166666666 0.05112708333333334 0.5531739583333334 0.2116 0.7800354166666666 0.2996947916666667 0.43244791666666665 0.8373677083333333 0.6320208333333334 1.3466500000000001 0.4998427083333334 0.11401770833333333 -0.030475000000000002 0.22269270833333335 -0.07824791666666667 0.32223958333333336 -0.14164166666666667l5.246371875 -3.343265625c0.2595645833333333 -0.16344375000000003 0.43843750000000004 -0.42849479166666665 0.49291875 -0.7303458333333334 0.05438541666666667 -0.307840625 -0.017202083333333333 -0.6246416666666668 -0.19863854166666667 -0.8791989583333334 -0.29988645833333333 -0.43254375 -0.8376791666666666 -0.6321885416666667 -1.3471770833333334 -0.5001062500000001 -0.11387395833333334 0.030475000000000002 -0.22238125 0.0782 -0.3218083333333333 0.14152187500000002l-2.0019822916666667 1.2761885416666667c-0.3291875 0.20932395833333334 -0.6884427083333333 0.367065625 -1.06533125 0.467834375 -1.6910270833333334 0.439659375 -3.4767854166666665 -0.22226145833333333 -4.4726614583333335 -1.6579166666666667 -0.6031031250000001 -0.8441000000000001 -0.8406739583333334 -1.8956072916666666 -0.6590458333333333 -2.9169989583333336 0.17978333333333332 -1.0020572916666668 0.7734229166666667 -1.8820229166666669 1.6352520833333335 -2.423984375l5.245892708333334 -3.343553125c0.32935520833333337 -0.209659375 0.6888739583333334 -0.3676166666666667 1.0660500000000002 -0.4683854166666667 1.691003125 -0.439659375 3.4767614583333333 0.22226145833333333 4.472637499999999 1.6578927083333335 0.6030791666666666 0.8441239583333333 0.84065 1.8956072916666666 0.6590458333333333 2.917022916666667 -0.030570833333333332 0.165959375 -0.07245 0.3296427083333333 -0.12535000000000002 0.4899l-0.09880416666666667 0.3012760416666667 -0.26864479166666666 -0.19712916666666666c-0.6206885416666666 -0.45635833333333337 -1.3147854166666668 -0.803275 -2.052366666666667 -1.0258l-0.19497291666666666 -0.05917708333333333 0.01796875 -0.19458958333333334c0.023622916666666667 -0.27683854166666666 -0.05131875 -0.5531020833333334 -0.2116 -0.7800354166666666 -0.29971875 -0.43244791666666665 -0.8373916666666668 -0.631996875 -1.3466739583333334 -0.49981875 -0.11401770833333333 0.030475000000000002 -0.22269270833333335 0.07824791666666667 -0.32223958333333336 0.14161770833333334L8.328060416666666 9.030351041666666c-0.2595166666666667 0.1633 -0.43829375 0.42832708333333336 -0.4925114583333333 0.7301302083333333 -0.05472083333333334 0.3078166666666667 0.016722916666666667 0.6247375000000001 0.19823125000000003 0.87931875 0.2999104166666667 0.43251979166666665 0.8377031250000001 0.6321645833333334 1.3471770833333334 0.5001062500000001 0.11399375 -0.030546875 0.22266875 -0.07829583333333333 0.32223958333333336 -0.14161770833333334l2.001694791666667 -1.2757333333333334c0.3290677083333333 -0.2095875 0.6882989583333333 -0.367496875 1.0652114583333334 -0.46819375 1.6910270833333334 -0.4396833333333333 3.4767854166666665 0.22226145833333333 4.4726614583333335 1.6579166666666667 0.6031031250000001 0.8441000000000001 0.8406739583333334 1.8955833333333334 0.6590697916666667 2.9169750000000003 -0.179903125 1.0021291666666667 -0.7734947916666667 1.8821666666666668 -1.6352520833333335 2.4243677083333335L11.020641666666668 19.596886458333334c-0.32933125 0.209659375 -0.6888500000000001 0.3676166666666667 -1.0660260416666667 0.468409375" stroke-width="1"></path></svg>